<svg width="21" height="45" viewBox="0 0 21 45" fill="none" xmlns="http://www.w3.org/2000/svg">
<rect x="1.47546" width="17.7049" height="45" fill="#3949AB"/>
<rect x="4.42627" y="9.22137" width="11.4344" height="4.42623" fill="#232425"/>
<rect x="2.21307" y="10.6967" width="0.737705" height="3.68852" fill="#232425"/>
<rect x="2.21307" y="14.7541" width="0.737705" height="3.68852" fill="#232425"/>
<rect x="2.21307" y="18.8115" width="0.737705" height="3.68852" fill="#232425"/>
<rect x="2.21307" y="22.8689" width="0.737705" height="3.68852" fill="#232425"/>
<rect x="2.21307" y="26.9262" width="0.737705" height="3.68852" fill="#232425"/>
<rect x="2.21307" y="30.9837" width="0.737705" height="3.68852" fill="#232425"/>
<rect x="2.21307" y="35.041" width="0.737705" height="3.68852" fill="#232425"/>
<rect x="17.7049" y="10.6967" width="0.737705" height="3.68852" fill="#232425"/>
<rect x="17.7049" y="14.7541" width="0.737705" height="3.68852" fill="#232425"/>
<rect x="17.7049" y="18.8115" width="0.737705" height="3.68852" fill="#232425"/>
<rect x="17.7049" y="22.8689" width="0.737705" height="3.68852" fill="#232425"/>
<rect x="17.7049" y="26.9262" width="0.737705" height="3.68852" fill="#232425"/>
<rect x="17.7049" y="30.9837" width="0.737705" height="3.68852" fill="#232425"/>
<rect x="17.7049" y="35.041" width="0.737705" height="3.68852" fill="#232425"/>
<rect x="2.21307" y="1.84431" width="16.2295" height="4.42623" fill="#232425"/>
<rect x="2.21307" y="41.3115" width="16.2295" height="2.58197" fill="#232425"/>
<rect x="15.8607" y="44.2623" width="2.58197" height="0.368852" fill="#BDBDBD"/>
<rect x="2.21307" y="44.2623" width="2.58197" height="0.368852" fill="#BDBDBD"/>
<rect x="18.8115" y="5.164" width="1.47541" height="0.737705" fill="#232425"/>
<rect x="19.9181" y="1.47546" width="0.368852" height="3.68852" fill="#232425"/>
<rect x="19.1803" y="1.47546" width="1.47541" height="0.368852" fill="#232425"/>
<rect x="0.368835" y="5.164" width="1.47541" height="0.737705" fill="#232425"/>
<rect x="0.368835" y="1.47546" width="0.368852" height="3.68852" fill="#232425"/>
<rect y="1.47546" width="1.47541" height="0.368852" fill="#232425"/>
<rect x="4.42627" y="25.8197" width="11.4344" height="5.90164" fill="#232425"/>
<rect x="2.21307" width="2.95082" height="1.47541" fill="#BDBDBD"/>
<rect x="15.4918" width="2.95082" height="1.47541" fill="#BDBDBD"/>
</svg>
