<svg width="169" height="164" viewBox="0 0 169 164" fill="none" xmlns="http://www.w3.org/2000/svg">
<path d="M140.477 90.5672L134.938 89.1304C134.938 89.1304 133.955 88.6645 133.657 87.7566C132.913 84.6602 132.351 83.0738 133.695 79.7969C135.705 74.8927 140.024 71.9556 143.342 73.2365C146.66 74.517 147.719 79.5303 145.709 84.4341C144.46 87.4808 142.715 89.5782 140.477 90.5672Z" fill="#151413"/>
<path d="M22.8397 80.6037L14.0499 82.9908C14.0499 82.9908 8.44122 84.1472 8.48855 91.4847H11.4194C11.4194 91.4847 11.5786 86.8455 15.7183 86.0444L21.662 85.1589L22.8397 80.6037Z" fill="#1A1919"/>
<path d="M11.9822 100.797L6.83615 99.4348V89.9906L11.9822 91.3532V100.797Z" fill="#232425"/>
<path d="M11.9822 91.3532L12.5271 91.0505V100.013L11.9822 100.797V91.3532Z" fill="#100E0D"/>
<path d="M6.83615 89.9905L7.56136 89.7977L12.5271 91.0504L11.9822 91.3532L6.83615 89.9905Z" fill="#353639"/>
<path d="M122.56 101.014L117.02 99.5775C117.02 99.5775 116.038 99.1112 115.74 98.2033C114.995 95.1068 114.434 93.5205 115.777 90.2435C117.787 85.3394 122.106 82.4026 125.424 83.6832C128.742 84.9641 129.802 89.977 127.792 94.8812C126.543 97.9279 124.798 100.025 122.56 101.014Z" fill="#151413"/>
<path d="M72.1012 129.695L66.5614 128.259C66.5614 128.259 65.5793 127.793 65.2812 126.885C64.5364 123.788 63.9752 122.202 65.3186 118.925C67.3285 114.021 71.6473 111.084 74.9653 112.365C78.2829 113.646 79.343 118.659 77.333 123.562C76.0842 126.609 74.3389 128.707 72.1012 129.695Z" fill="#151413"/>
<path d="M158.116 68.6482V37.2953C158.116 31.8265 155.038 32.9485 155.038 32.9485L151.959 34.6776L151.959 34.6783L57.3165 84.1167C57.3165 84.1167 51.729 85.7474 51.2326 94.5167L47.7783 132.588C47.7783 132.588 47.0879 136.925 55.055 132.215L154.057 75.8033C159.152 73.299 158.116 68.6482 158.116 68.6482Z" fill="#0085FF"/>
<path d="M20.9273 128.418C20.9273 128.418 39.0374 138.178 49.3661 134.514L57.3165 84.1167L25.9366 73.2989C20.5679 73.8937 19.3877 80.4834 19.3877 80.4834C19.3877 80.4834 13.2191 103.19 15.9995 120.537C15.9995 120.537 15.2796 126.126 20.9273 128.418Z" fill="#0085FF"/>
<path d="M48.5422 116.586L48.5549 123.635L48.9822 123.634L48.9047 123.226C47.4782 123.482 45.9877 123.597 44.4619 123.597C37.8879 123.599 30.6616 121.452 25.0948 119.295C22.3107 118.218 19.9401 117.139 18.267 116.331C17.4305 115.927 16.7683 115.591 16.316 115.355C16.0898 115.238 15.9162 115.146 15.7993 115.083C15.6826 115.021 15.6243 114.988 15.6241 114.988L15.2019 115.709C15.2134 115.716 19.156 117.889 24.778 120.066C30.4016 122.241 37.6997 124.424 44.4619 124.427C46.0322 124.427 47.574 124.308 49.0597 124.042C49.2628 124.006 49.4098 123.834 49.4094 123.634L49.3971 116.585L48.5422 116.586Z" fill="black"/>
<path d="M130.111 24.8067L153.945 33.6335L54.3324 85.6506L23.6464 74.1587L130.111 24.8067Z" fill="#093FA8"/>
<path d="M49.1829 116.944L158.329 55.8961L157.903 55.1776L48.7564 116.226" fill="black"/>
<path d="M18.501 111.454L18.0909 111.336C18.0838 111.362 17.9403 111.835 17.9397 112.51C17.94 113.003 18.0174 113.608 18.2982 114.214C18.5774 114.821 19.0683 115.423 19.8503 115.88L19.8789 115.896C19.9003 115.904 29.0776 120.4 38.4044 121.766C38.4546 121.773 38.507 121.772 38.5567 121.761C38.5887 121.753 39.079 121.654 39.6 121.305C39.8597 121.13 40.128 120.889 40.333 120.559C40.5381 120.23 40.6729 119.814 40.6717 119.326C40.6717 118.982 40.6069 118.604 40.465 118.189C40.4221 118.064 40.3215 117.967 40.1927 117.926L18.6342 111.059C18.5241 111.024 18.4049 111.034 18.3022 111.086C18.1998 111.139 18.1237 111.228 18.0909 111.336L18.501 111.454L18.3676 111.848L39.926 118.714L40.0596 118.32L39.6538 118.451C39.7714 118.794 39.8171 119.083 39.8171 119.326C39.816 119.67 39.7286 119.923 39.6008 120.131C39.4099 120.441 39.1054 120.652 38.8385 120.781C38.7059 120.846 38.5851 120.889 38.5004 120.916C38.4581 120.93 38.4248 120.938 38.4037 120.944L38.3813 120.949L38.3775 120.95L38.4125 121.102L38.3793 120.95L38.3775 120.95L38.4125 121.102L38.3793 120.95L38.4681 121.355L38.5316 120.945C33.9616 120.278 29.3861 118.83 25.96 117.547C24.2469 116.906 22.8204 116.307 21.8235 115.869C21.325 115.65 20.9339 115.471 20.6681 115.347C20.535 115.285 20.4335 115.237 20.3653 115.204C20.2972 115.171 20.2638 115.155 20.2636 115.155L20.0713 115.525L20.2924 115.17C19.6573 114.796 19.2962 114.343 19.0776 113.874C18.8605 113.407 18.7943 112.919 18.7946 112.51C18.7944 112.23 18.825 111.989 18.8551 111.822C18.8702 111.738 18.885 111.672 18.8956 111.628L18.9079 111.581L18.9107 111.571L18.9109 111.571L18.501 111.454Z" fill="black"/>
<path d="M25.9366 73.299C20.3692 73.3993 18.7806 80.4834 18.7806 80.4834C18.7806 80.4834 14.8973 95.1674 15.2708 110.297C15.2708 110.297 32.9993 119.467 45.0807 119.183C48.9698 119.268 49.3673 117.068 49.3673 117.068C49.541 101.648 51.6901 91.3255 51.6901 91.3255C52.9174 84.4951 57.3165 84.1167 57.3165 84.1167C57.3165 84.1167 28.2268 76.8482 25.9366 73.299Z" fill="#232425"/>
<path d="M47.3271 114.459C47.3271 114.459 47.1932 116.928 43.3092 116.362C42.6554 116.267 26.6276 113.755 15.2455 106.72C14.8246 93.976 18.7806 80.5193 18.7806 80.5193C18.7806 80.5193 19.5909 78.1453 21.6268 79.091C33.246 84.4874 46.252 86.3256 46.252 86.3256C46.252 86.3256 49.8347 86.6446 49.198 91.6082C49.198 91.6082 47.7632 99.4317 47.3271 114.459Z" fill="#84D7E3"/>
<path d="M44.3931 116.447C47.2186 116.446 47.3272 114.459 47.3272 114.459C47.4245 111.11 47.5712 108.117 47.7409 105.49V105.49C47.5716 108.118 47.4245 111.108 47.3272 114.459C47.3272 114.459 47.219 116.447 44.3931 116.447Z" fill="#172324"/>
<path d="M15.2445 106.683C15.2443 106.681 15.2443 106.679 15.2441 106.677C15.2443 106.679 15.2443 106.681 15.2445 106.683ZM15.2432 106.647C15.2431 106.643 15.2431 106.64 15.2429 106.637C15.2431 106.64 15.2431 106.643 15.2432 106.647ZM15.242 106.61C15.242 106.605 15.2418 106.601 15.2417 106.597C15.2418 106.601 15.242 106.605 15.242 106.61ZM15.241 106.574C15.2407 106.568 15.2406 106.563 15.2404 106.557C15.2406 106.563 15.2407 106.568 15.241 106.574ZM15.2398 106.537C15.2396 106.531 15.2395 106.524 15.2392 106.517C15.2395 106.524 15.2396 106.531 15.2398 106.537ZM15.2387 106.502C15.2385 106.494 15.2384 106.486 15.2381 106.479C15.2384 106.487 15.2385 106.494 15.2387 106.502ZM15.2378 106.467C15.2375 106.458 15.2373 106.449 15.237 106.44C15.2373 106.449 15.2375 106.458 15.2378 106.467ZM15.2368 106.436C15.2336 106.319 15.2308 106.202 15.2282 106.084C15.2308 106.202 15.2336 106.318 15.2368 106.436ZM15.2282 106.084C15.2277 106.059 15.227 106.035 15.2266 106.01C15.227 106.035 15.2277 106.059 15.2282 106.084ZM15.2266 106.009C15.2263 105.997 15.2261 105.985 15.2258 105.973C15.2261 105.985 15.2263 105.996 15.2266 106.009ZM15.2258 105.971C15.2255 105.96 15.2253 105.948 15.2252 105.937C15.2253 105.949 15.2255 105.959 15.2258 105.971ZM15.2243 105.89C15.2241 105.881 15.2239 105.873 15.2238 105.864C15.2239 105.873 15.2241 105.882 15.2243 105.89ZM15.2235 105.849C15.2233 105.841 15.2233 105.834 15.2232 105.827C15.2233 105.834 15.2233 105.842 15.2235 105.849ZM15.2221 105.765C15.2221 105.761 15.2219 105.757 15.2219 105.753C15.2219 105.757 15.2221 105.761 15.2221 105.765ZM15.2215 105.725C15.2215 105.722 15.2213 105.72 15.2213 105.717C15.2213 105.719 15.2215 105.723 15.2215 105.725ZM15.2208 105.686C15.2208 105.684 15.2208 105.681 15.2207 105.679C15.2208 105.682 15.2208 105.684 15.2208 105.686ZM15.2198 105.607C15.2198 105.606 15.2198 105.606 15.2198 105.605C15.2198 105.606 15.2198 105.606 15.2198 105.607Z" fill="#42BFD9"/>
<path d="M44.3919 116.447C44.0755 116.447 43.7254 116.422 43.3374 116.367H43.337C43.3279 116.365 43.3188 116.364 43.3092 116.362C42.6554 116.267 26.6276 113.755 15.2455 106.72C15.2452 106.707 15.2448 106.696 15.2445 106.683C15.2443 106.681 15.2443 106.679 15.2441 106.677C15.2438 106.667 15.2435 106.657 15.2432 106.647C15.2431 106.643 15.2431 106.64 15.2429 106.637C15.2426 106.628 15.2423 106.619 15.242 106.61C15.242 106.605 15.2418 106.601 15.2417 106.597C15.2414 106.589 15.2412 106.581 15.241 106.574C15.2407 106.568 15.2406 106.563 15.2404 106.557C15.2402 106.551 15.2401 106.544 15.2398 106.538C15.2396 106.531 15.2395 106.524 15.2392 106.517C15.239 106.512 15.2389 106.507 15.2387 106.502C15.2385 106.494 15.2384 106.487 15.2381 106.479C15.2381 106.475 15.2379 106.471 15.2378 106.467C15.2375 106.458 15.2373 106.449 15.237 106.44C15.237 106.438 15.237 106.437 15.2368 106.436C15.2336 106.318 15.2308 106.202 15.2282 106.084C15.2282 106.084 15.2282 106.084 15.2282 106.084C15.2277 106.059 15.227 106.035 15.2266 106.01C15.2266 106.01 15.2266 106.009 15.2266 106.009C15.2263 105.996 15.2261 105.985 15.2258 105.973C15.2258 105.972 15.2258 105.971 15.2258 105.971C15.2255 105.959 15.2253 105.949 15.2252 105.937C15.2251 105.935 15.2251 105.933 15.2251 105.93C15.2249 105.92 15.2246 105.91 15.2244 105.9C15.2244 105.897 15.2244 105.893 15.2243 105.89C15.2241 105.882 15.2239 105.873 15.2238 105.864C15.2236 105.859 15.2236 105.854 15.2235 105.849C15.2234 105.842 15.2234 105.834 15.2232 105.827C15.223 105.819 15.2229 105.811 15.2227 105.804C15.2227 105.799 15.2226 105.795 15.2226 105.79C15.2224 105.782 15.2222 105.773 15.2221 105.765C15.2221 105.761 15.2219 105.757 15.2219 105.753C15.2218 105.744 15.2216 105.735 15.2215 105.725C15.2215 105.723 15.2213 105.719 15.2213 105.717C15.2212 105.706 15.221 105.696 15.2208 105.686C15.2208 105.684 15.2208 105.682 15.2207 105.679C15.2205 105.669 15.2204 105.657 15.2203 105.647C15.2203 105.645 15.2203 105.644 15.2203 105.642C15.2201 105.631 15.2199 105.619 15.2198 105.607C15.2198 105.606 15.2198 105.606 15.2198 105.605C15.1803 102.697 15.3555 99.7742 15.6461 97.0022C15.674 97.0628 15.702 97.1233 15.73 97.1827C16.466 98.7625 17.2231 100.365 18.2771 101.772C20.2574 104.415 23.1745 106.129 26.2504 107.334C29.8952 108.763 34.0299 109.41 37.9677 109.41C38.156 109.41 38.3443 109.409 38.5317 109.406C40.2718 109.378 41.913 109.147 43.5175 108.472C45.1244 107.797 46.5585 106.735 47.7409 105.49C47.5712 108.117 47.4245 111.11 47.3271 114.459C47.3271 114.459 47.2186 116.446 44.3931 116.447C44.3927 116.447 44.3923 116.447 44.3919 116.447Z" fill="#44C1D1"/>
<path d="M26.5786 116.23C26.4721 116.511 26.1508 116.655 25.8614 116.552L23.2055 115.603C22.9159 115.5 22.7673 115.188 22.8741 114.907C22.9807 114.626 23.3017 114.482 23.5913 114.586L26.2476 115.534C26.5368 115.638 26.6853 115.949 26.5786 116.23Z" fill="#232425"/>
<path d="M33.5573 118.576C33.4638 118.861 33.1497 119.019 32.8557 118.928L30.1587 118.095C29.8646 118.004 29.7022 117.699 29.7958 117.414C29.8896 117.128 30.2034 116.971 30.4975 117.061L33.1947 117.895C33.4885 117.985 33.6507 118.29 33.5573 118.576Z" fill="#232425"/>
<path d="M15.9869 121.67L21.5246 123.903C21.5246 123.903 22.8786 120.177 15.5888 117.408C15.5888 117.408 15.069 117.555 15.981 121.564" fill="#232425"/>
<path d="M19.2742 120.496C19.2742 121.201 18.6845 121.773 17.9576 121.773C17.2305 121.773 16.641 121.201 16.641 120.496C16.641 119.79 17.2305 119.218 17.9576 119.218C18.6845 119.218 19.2742 119.79 19.2742 120.496Z" fill="#D3D2D2"/>
<path d="M18.1827 120.548C18.4342 120.772 18.7354 120.83 18.9913 120.731C19.0511 120.607 19.0856 120.469 19.0856 120.324C19.0856 119.802 18.6595 119.379 18.1267 119.36C17.8588 119.714 17.8223 120.228 18.1827 120.548Z" fill="white"/>
<path d="M17.8991 120.846C17.4884 120.368 17.4806 119.723 17.791 119.229C17.1428 119.309 16.641 119.845 16.641 120.496C16.641 121.201 17.2305 121.773 17.9576 121.773C18.4002 121.773 18.7907 121.561 19.0295 121.236C18.6387 121.322 18.2093 121.208 17.8991 120.846Z" fill="#BDBCBC"/>
<path d="M20.7308 121.853C20.7308 122.33 20.3324 122.717 19.8402 122.717C19.3484 122.717 18.9498 122.33 18.9498 121.853C18.9498 121.375 19.3484 120.988 19.8402 120.988C20.3324 120.988 20.7308 121.375 20.7308 121.853Z" fill="#D3D2D2"/>
<path d="M19.9926 121.888C20.1627 122.039 20.3662 122.078 20.5395 122.011C20.5797 121.928 20.6033 121.834 20.6033 121.736C20.6033 121.383 20.3147 121.097 19.9547 121.084C19.7736 121.324 19.7486 121.672 19.9926 121.888Z" fill="white"/>
<path d="M19.801 122.089C19.5229 121.766 19.5175 121.33 19.7278 120.996C19.2894 121.05 18.9498 121.412 18.9498 121.853C18.9498 122.33 19.3484 122.717 19.8402 122.717C20.1394 122.717 20.4038 122.573 20.5655 122.353C20.3009 122.411 20.0104 122.334 19.801 122.089Z" fill="#BDBCBC"/>
<path d="M17.1728 118.982C17.1728 119.352 16.8643 119.651 16.4837 119.651C16.1032 119.651 15.7945 119.352 15.7945 118.982C15.7945 118.613 16.1032 118.313 16.4837 118.313C16.8643 118.313 17.1728 118.613 17.1728 118.982Z" fill="#0085FF"/>
<path d="M48.004 126.942V130.896L39.3305 129.04C39.3305 129.04 39.7647 124.909 48.004 126.942Z" fill="#232425"/>
<path d="M43.5382 127.415C43.0783 128.038 43.2254 128.905 43.8669 129.352C44.5088 129.798 45.4022 129.655 45.8625 129.033C46.3228 128.41 46.1753 127.543 45.5338 127.097C44.8919 126.65 43.9984 126.792 43.5382 127.415Z" fill="#D3D2D2"/>
<path d="M44.4678 128.132C44.0998 128.175 43.7961 128.041 43.6348 127.797C43.663 127.65 43.7226 127.508 43.8172 127.379C44.1574 126.919 44.81 126.807 45.2918 127.117C45.2973 127.595 44.9945 128.071 44.4678 128.132Z" fill="white"/>
<path d="M44.5239 128.569C45.198 128.399 45.6256 127.835 45.6737 127.208C46.1936 127.677 46.287 128.458 45.8625 129.033C45.4023 129.655 44.5088 129.798 43.8669 129.352C43.4766 129.08 43.2707 128.652 43.2719 128.219C43.5604 128.535 44.0143 128.698 44.5239 128.569Z" fill="#BDBCBC"/>
<path d="M41.368 127.718C41.0568 128.139 41.1562 128.725 41.5906 129.028C42.0246 129.33 42.6288 129.233 42.9404 128.812C43.2512 128.391 43.1518 127.804 42.7178 127.502C42.2838 127.2 41.6796 127.297 41.368 127.718Z" fill="#D3D2D2"/>
<path d="M41.9968 128.203C41.748 128.232 41.5429 128.141 41.434 127.976C41.4523 127.877 41.4928 127.781 41.5568 127.694C41.787 127.382 42.2281 127.306 42.5544 127.517C42.5576 127.839 42.3533 128.161 41.9968 128.203Z" fill="white"/>
<path d="M42.0346 128.498C42.4909 128.383 42.7798 128.002 42.812 127.578C43.1642 127.895 43.227 128.423 42.9404 128.812C42.6288 129.233 42.0246 129.33 41.5906 129.028C41.3267 128.844 41.1872 128.555 41.1876 128.262C41.3831 128.475 41.69 128.585 42.0346 128.498Z" fill="#BDBCBC"/>
<path d="M46.3804 127.37C46.1395 127.696 46.2162 128.15 46.5521 128.383C46.8883 128.617 47.3558 128.542 47.5966 128.216C47.8375 127.89 47.7608 127.436 47.4245 127.203C47.0887 126.969 46.6213 127.044 46.3804 127.37Z" fill="#0085FF"/>
<path d="M22.8397 121.856V129.378C22.8397 129.378 29.9772 133.028 35.0499 133.991V126.38C35.0499 126.38 30.1262 125.475 22.8397 121.856ZM23.6944 123.198C28.8811 125.652 32.6936 126.692 34.1952 127.044V132.955C30.1657 131.968 25.2038 129.612 23.6944 128.871V123.198Z" fill="black"/>
<path d="M23.9918 123.954V124.677C23.9918 124.677 26.75 126.615 33.8977 128.17V127.447C33.8977 127.447 28.6591 126.411 23.9918 123.954Z" fill="#EF8748"/>
<path d="M23.9918 125.212V125.935C23.9918 125.935 26.9365 127.827 33.8977 129.429V128.706C33.8977 128.706 28.6591 127.67 23.9918 125.212Z" fill="#EF8748"/>
<path d="M23.9918 126.471V127.194C23.9918 127.194 26.75 129.133 33.8977 130.687V129.965C33.8977 129.965 28.6591 128.928 23.9918 126.471Z" fill="#EF8748"/>
<path d="M23.9918 127.729V128.452C23.9918 128.452 27.1967 130.339 33.8977 131.946V131.223C33.8977 131.223 28.6591 130.187 23.9918 127.729Z" fill="#EF8748"/>
<path d="M56.553 89.6241L47.7632 92.0112C47.7632 92.0112 42.1542 93.1676 42.2019 100.505H45.1328C45.1328 100.505 45.2921 95.8659 49.4317 95.0648L55.3753 94.1792L56.553 89.6241Z" fill="#232425"/>
<path d="M45.6952 109.818L40.5497 108.455V99.0109L45.6952 100.374V109.818Z" fill="#232425"/>
<path d="M45.6952 100.374L46.2401 100.071V109.034L45.6952 109.818V100.374Z" fill="#100E0D"/>
<path d="M40.5497 99.0109L41.2746 98.8181L46.2401 100.071L45.6952 100.374L40.5497 99.0109Z" fill="#353639"/>
<path d="M49.0561 123.76L158.19 62.9587L158.042 62.708L48.9078 123.509" fill="black"/>
<path d="M65.9982 125.885H66.2963V106.725H65.9982V125.885Z" fill="black"/>
<path d="M78.6132 118.746H78.9108V99.5852H78.6132V118.746Z" fill="black"/>
<path d="M92.5076 110.911H92.8057V91.7506H92.5076V110.911Z" fill="black"/>
<path d="M107.958 102.006H108.256V82.8455H107.958V102.006Z" fill="black"/>
<path d="M122.407 93.8344H122.705V74.6743H122.407V93.8344Z" fill="black"/>
<path d="M66.7641 126.062C66.7641 126.062 64.7597 115.349 73.354 110.911C73.354 110.911 81.5413 105.706 82.9821 116.277L66.7641 126.062Z" fill="#151413"/>
<path d="M81.2321 122.975C79.2221 127.878 74.9037 130.815 71.5853 129.535C68.2673 128.254 67.2077 123.241 69.2177 118.337C71.2276 113.433 75.5464 110.496 78.8644 111.777C82.182 113.057 83.2424 118.071 81.2321 122.975Z" fill="#323436"/>
<path d="M78.3656 122.092C77.3147 124.655 75.0571 126.191 73.3226 125.522C71.5881 124.853 71.0336 122.231 72.0845 119.668C73.1354 117.104 75.393 115.569 77.1275 116.238C78.862 116.908 79.4165 119.528 78.3656 122.092Z" fill="#151413"/>
<path d="M78.178 121.532C77.2495 123.799 75.2535 125.156 73.7205 124.564C72.1871 123.972 71.697 121.655 72.6259 119.389C73.5547 117.123 75.5504 115.766 77.0838 116.358C78.6172 116.949 79.1073 119.266 78.178 121.532Z" fill="#D3D2D2"/>
<path d="M78.178 121.532C77.2495 123.799 75.2535 125.156 73.7205 124.564C72.1871 123.972 71.697 121.655 72.6259 119.389C73.5547 117.123 75.5504 115.766 77.0838 116.358C78.6172 116.949 79.1073 119.266 78.178 121.532Z" fill="#D3D2D2"/>
<path d="M77.1804 121.043C76.5595 122.558 75.2797 123.487 74.323 123.118C73.3655 122.749 73.0933 121.22 73.7145 119.705C74.3358 118.189 75.6152 117.26 76.5723 117.629C77.5293 117.999 77.8012 119.527 77.1804 121.043Z" fill="#7B7979"/>
<path d="M75.7201 117.027C75.7201 117.198 75.5774 117.335 75.4021 117.335C75.2269 117.335 75.0842 117.198 75.0842 117.027C75.0842 116.857 75.2269 116.718 75.4021 116.718C75.5774 116.718 75.7201 116.857 75.7201 117.027Z" fill="#D3D2D2"/>
<path d="M75.4562 117.039C75.5174 117.093 75.5897 117.108 75.6517 117.084C75.666 117.054 75.6744 117.02 75.6744 116.985C75.6744 116.86 75.5714 116.757 75.4427 116.753C75.3779 116.838 75.3695 116.962 75.4562 117.039Z" fill="white"/>
<path d="M75.3878 117.111C75.2889 116.996 75.2869 116.84 75.3616 116.721C75.205 116.74 75.0842 116.87 75.0842 117.027C75.0842 117.198 75.2269 117.335 75.4021 117.335C75.5091 117.335 75.6033 117.284 75.6609 117.206C75.5667 117.226 75.4629 117.199 75.3878 117.111Z" fill="#BDBCBC"/>
<path d="M77.2225 116.924C77.2225 117.095 77.0798 117.232 76.9045 117.232C76.7288 117.232 76.5862 117.095 76.5862 116.924C76.5862 116.754 76.7288 116.615 76.9045 116.615C77.0798 116.615 77.2225 116.754 77.2225 116.924Z" fill="#D3D2D2"/>
<path d="M76.9586 116.936C77.0194 116.99 77.0921 117.005 77.1541 116.981C77.1684 116.951 77.1768 116.917 77.1768 116.882C77.1768 116.756 77.0739 116.654 76.9451 116.649C76.8803 116.735 76.8719 116.859 76.9586 116.936Z" fill="white"/>
<path d="M76.8906 117.009C76.7912 116.893 76.7893 116.737 76.8644 116.618C76.7078 116.637 76.5862 116.767 76.5862 116.924C76.5862 117.095 76.7288 117.232 76.9045 117.232C77.0114 117.232 77.1056 117.181 77.1633 117.102C77.0691 117.123 76.9653 117.096 76.8906 117.009Z" fill="#BDBCBC"/>
<path d="M78.2352 118.115C78.2352 118.286 78.0929 118.424 77.9177 118.424C77.742 118.424 77.5997 118.286 77.5997 118.115C77.5997 117.945 77.742 117.807 77.9177 117.807C78.0929 117.807 78.2352 117.945 78.2352 118.115Z" fill="#D3D2D2"/>
<path d="M77.9717 118.128C78.0329 118.182 78.1053 118.196 78.1673 118.172C78.1816 118.142 78.1899 118.109 78.1899 118.074C78.1899 117.948 78.087 117.846 77.9586 117.841C77.8938 117.926 77.8851 118.051 77.9717 118.128Z" fill="white"/>
<path d="M77.9034 118.2C77.8044 118.085 77.8024 117.929 77.8775 117.81C77.7205 117.829 77.5997 117.958 77.5997 118.115C77.5997 118.286 77.742 118.424 77.9177 118.424C78.0246 118.424 78.1188 118.373 78.1764 118.294C78.0822 118.315 77.9781 118.287 77.9034 118.2Z" fill="#BDBCBC"/>
<path d="M78.4006 119.922C78.4006 120.093 78.2583 120.231 78.0826 120.231C77.9069 120.231 77.7642 120.093 77.7642 119.922C77.7642 119.752 77.9069 119.614 78.0826 119.614C78.2583 119.614 78.4006 119.752 78.4006 119.922Z" fill="#D3D2D2"/>
<path d="M78.1367 119.934C78.1979 119.989 78.2702 120.003 78.3322 119.979C78.3465 119.949 78.3549 119.916 78.3549 119.881C78.3549 119.755 78.2519 119.652 78.1231 119.648C78.0588 119.733 78.05 119.858 78.1367 119.934Z" fill="white"/>
<path d="M78.0683 120.007C77.9693 119.891 77.9673 119.735 78.0425 119.617C77.8855 119.636 77.7642 119.765 77.7642 119.922C77.7642 120.093 77.9069 120.231 78.0826 120.231C78.1895 120.231 78.2837 120.179 78.3413 120.101C78.2468 120.122 78.1434 120.094 78.0683 120.007Z" fill="#BDBCBC"/>
<path d="M77.9177 121.386C77.9177 121.556 77.7754 121.694 77.5997 121.694C77.424 121.694 77.2817 121.556 77.2817 121.386C77.2817 121.216 77.424 121.078 77.5997 121.078C77.7754 121.078 77.9177 121.216 77.9177 121.386Z" fill="#D3D2D2"/>
<path d="M77.6537 121.399C77.715 121.453 77.7873 121.466 77.8493 121.443C77.8636 121.412 77.872 121.38 77.872 121.344C77.872 121.218 77.769 121.116 77.6402 121.112C77.5758 121.197 77.5671 121.321 77.6537 121.399Z" fill="white"/>
<path d="M77.5858 121.47C77.4868 121.355 77.4844 121.199 77.5595 121.08C77.4029 121.099 77.2817 121.229 77.2817 121.386C77.2817 121.556 77.424 121.694 77.5997 121.694C77.7066 121.694 77.8008 121.643 77.8584 121.565C77.7642 121.586 77.6601 121.557 77.5858 121.47Z" fill="#BDBCBC"/>
<path d="M77.1204 122.787C77.1204 122.958 76.9781 123.096 76.8028 123.096C76.6271 123.096 76.4844 122.958 76.4844 122.787C76.4844 122.617 76.6271 122.479 76.8028 122.479C76.9781 122.479 77.1204 122.617 77.1204 122.787Z" fill="#D3D2D2"/>
<path d="M76.8572 122.8C76.9176 122.854 76.9904 122.868 77.052 122.844C77.0667 122.814 77.0746 122.781 77.0746 122.746C77.0746 122.62 76.9721 122.517 76.8433 122.513C76.7785 122.598 76.7698 122.723 76.8572 122.8Z" fill="white"/>
<path d="M76.7885 122.872C76.6895 122.756 76.6871 122.601 76.7622 122.481C76.6056 122.501 76.4844 122.63 76.4844 122.787C76.4844 122.958 76.6271 123.096 76.8028 123.096C76.9093 123.096 77.0035 123.045 77.0611 122.966C76.9669 122.987 76.8632 122.959 76.7885 122.872Z" fill="#BDBCBC"/>
<path d="M75.7201 123.788C75.7201 123.959 75.5774 124.097 75.4021 124.097C75.2269 124.097 75.0842 123.959 75.0842 123.788C75.0842 123.618 75.2269 123.48 75.4021 123.48C75.5774 123.48 75.7201 123.618 75.7201 123.788Z" fill="#D3D2D2"/>
<path d="M75.4562 123.801C75.5174 123.855 75.5897 123.869 75.6517 123.845C75.666 123.815 75.6744 123.782 75.6744 123.747C75.6744 123.621 75.5714 123.518 75.4427 123.514C75.3779 123.599 75.3695 123.724 75.4562 123.801Z" fill="white"/>
<path d="M75.3878 123.873C75.2889 123.758 75.2869 123.602 75.3616 123.482C75.205 123.502 75.0842 123.631 75.0842 123.788C75.0842 123.959 75.2269 124.097 75.4021 124.097C75.5091 124.097 75.6033 124.046 75.6609 123.967C75.5667 123.988 75.4629 123.96 75.3878 123.873Z" fill="#BDBCBC"/>
<path d="M74.2916 123.891C74.2916 124.062 74.1489 124.2 73.9733 124.2C73.798 124.2 73.6553 124.062 73.6553 123.891C73.6553 123.721 73.798 123.583 73.9733 123.583C74.1489 123.583 74.2916 123.721 74.2916 123.891Z" fill="#D3D2D2"/>
<path d="M74.0277 123.904C74.0885 123.958 74.1613 123.972 74.2233 123.948C74.2376 123.918 74.2455 123.885 74.2455 123.85C74.2455 123.724 74.143 123.622 74.0142 123.617C73.9494 123.703 73.9407 123.827 74.0277 123.904Z" fill="white"/>
<path d="M73.9594 123.976C73.8604 123.86 73.858 123.705 73.9331 123.585C73.7765 123.605 73.6553 123.734 73.6553 123.891C73.6553 124.062 73.798 124.2 73.9733 124.2C74.0802 124.2 74.1748 124.149 74.2324 124.07C74.1378 124.091 74.0345 124.063 73.9594 123.976Z" fill="#BDBCBC"/>
<path d="M73.2602 122.89C73.2602 123.061 73.1179 123.199 72.9423 123.199C72.767 123.199 72.6243 123.061 72.6243 122.89C72.6243 122.72 72.767 122.582 72.9423 122.582C73.1179 122.582 73.2602 122.72 73.2602 122.89Z" fill="#D3D2D2"/>
<path d="M72.9967 122.903C73.0575 122.957 73.1303 122.971 73.1919 122.947C73.2062 122.917 73.2145 122.884 73.2145 122.848C73.2145 122.723 73.1116 122.62 72.9832 122.616C72.9184 122.701 72.9097 122.826 72.9967 122.903Z" fill="white"/>
<path d="M72.9279 122.975C72.829 122.859 72.827 122.704 72.9021 122.585C72.7455 122.604 72.6243 122.733 72.6243 122.89C72.6243 123.061 72.767 123.199 72.9423 123.199C73.0492 123.199 73.1434 123.148 73.201 123.069C73.1068 123.09 73.0031 123.062 72.9279 122.975Z" fill="#BDBCBC"/>
<path d="M72.9884 121.216C72.9884 121.387 72.8457 121.525 72.67 121.525C72.4947 121.525 72.352 121.387 72.352 121.216C72.352 121.046 72.4947 120.908 72.67 120.908C72.8457 120.908 72.9884 121.046 72.9884 121.216Z" fill="#D3D2D2"/>
<path d="M72.7245 121.228C72.7853 121.283 72.858 121.297 72.92 121.273C72.9343 121.243 72.9423 121.21 72.9423 121.174C72.9423 121.048 72.8397 120.946 72.7109 120.942C72.6462 121.027 72.6374 121.151 72.7245 121.228Z" fill="white"/>
<path d="M72.6561 121.301C72.5571 121.185 72.5547 121.029 72.6299 120.91C72.4733 120.93 72.352 121.059 72.352 121.216C72.352 121.387 72.4947 121.525 72.67 121.525C72.7769 121.525 72.8711 121.473 72.9287 121.395C72.8345 121.416 72.7308 121.388 72.6561 121.301Z" fill="#BDBCBC"/>
<path d="M73.447 119.546C73.447 119.716 73.3047 119.854 73.1291 119.854C72.9538 119.854 72.8111 119.716 72.8111 119.546C72.8111 119.376 72.9538 119.237 73.1291 119.237C73.3047 119.237 73.447 119.376 73.447 119.546Z" fill="#D3D2D2"/>
<path d="M73.1831 119.558C73.2443 119.612 73.3167 119.626 73.3787 119.602C73.393 119.572 73.4013 119.539 73.4013 119.504C73.4013 119.378 73.2984 119.276 73.17 119.271C73.1052 119.357 73.0969 119.481 73.1831 119.558Z" fill="white"/>
<path d="M73.1148 119.63C73.0158 119.515 73.0138 119.359 73.0889 119.24C72.9323 119.259 72.8111 119.389 72.8111 119.546C72.8111 119.716 72.9538 119.854 73.1291 119.854C73.236 119.854 73.3302 119.803 73.3878 119.725C73.2936 119.745 73.1899 119.718 73.1148 119.63Z" fill="#BDBCBC"/>
<path d="M74.321 118.048C74.321 118.218 74.1784 118.356 74.0031 118.356C73.8274 118.356 73.6851 118.218 73.6851 118.048C73.6851 117.877 73.8274 117.739 74.0031 117.739C74.1784 117.739 74.321 117.877 74.321 118.048Z" fill="#D3D2D2"/>
<path d="M74.0575 118.06C74.1183 118.114 74.1907 118.128 74.2527 118.104C74.267 118.074 74.2753 118.041 74.2753 118.006C74.2753 117.88 74.1724 117.778 74.0436 117.773C73.9792 117.859 73.9705 117.983 74.0575 118.06Z" fill="white"/>
<path d="M73.9888 118.132C73.8898 118.016 73.8878 117.861 73.9625 117.742C73.8063 117.761 73.6851 117.89 73.6851 118.048C73.6851 118.218 73.8274 118.356 74.0031 118.356C74.1096 118.356 74.2042 118.305 74.2618 118.226C74.1676 118.247 74.0639 118.219 73.9888 118.132Z" fill="#BDBCBC"/>
<path d="M76.6875 120.852C76.2428 121.937 75.3274 122.602 74.6426 122.337C73.9574 122.073 73.7626 120.98 74.207 119.895C74.6517 118.81 75.5675 118.146 76.2523 118.41C76.9371 118.674 77.1323 119.768 76.6875 120.852Z" fill="#E9E9E9"/>
<path d="M117.223 97.381C117.223 97.381 115.219 86.6673 123.813 82.2295C123.813 82.2295 132 77.0244 133.441 87.5957L117.223 97.381Z" fill="#151413"/>
<path d="M131.691 94.293C129.681 99.1968 125.362 102.134 122.044 100.853C118.726 99.5725 117.666 94.5592 119.677 89.6554C121.687 84.7512 126.006 81.8145 129.324 83.0954C132.641 84.3759 133.701 89.3892 131.691 94.293Z" fill="#323436"/>
<path d="M128.824 93.4105C127.774 95.9743 125.516 97.5094 123.781 96.8402C122.047 96.1706 121.493 93.5498 122.543 90.9864C123.594 88.4227 125.852 86.8872 127.586 87.5568C129.321 88.2267 129.875 90.8472 128.824 93.4105Z" fill="#151413"/>
<path d="M128.637 92.8513C127.708 95.1173 125.713 96.4746 124.179 95.8825C122.646 95.2912 122.156 92.974 123.085 90.708C124.013 88.4416 126.01 87.0847 127.543 87.6764C129.076 88.2684 129.566 90.5849 128.637 92.8513Z" fill="#D3D2D2"/>
<path d="M128.637 92.8513C127.708 95.1173 125.713 96.4746 124.179 95.8825C122.646 95.2912 122.156 92.974 123.085 90.708C124.013 88.4416 126.01 87.0847 127.543 87.6764C129.076 88.2684 129.566 90.5849 128.637 92.8513Z" fill="#D3D2D2"/>
<path d="M127.639 92.3611C127.018 93.8769 125.738 94.8056 124.782 94.4365C123.825 94.067 123.552 92.5389 124.173 91.0238C124.794 89.5076 126.074 88.5785 127.031 88.9484C127.988 89.3175 128.26 90.8456 127.639 92.3611Z" fill="#7B7979"/>
<path d="M126.179 88.3455C126.179 88.5156 126.037 88.6537 125.861 88.6537C125.686 88.6537 125.543 88.5156 125.543 88.3455C125.543 88.1751 125.686 88.037 125.861 88.037C126.037 88.037 126.179 88.1751 126.179 88.3455Z" fill="#D3D2D2"/>
<path d="M125.915 88.3583C125.976 88.4123 126.048 88.4262 126.111 88.4022C126.125 88.3722 126.133 88.339 126.133 88.3039C126.133 88.1778 126.03 88.0756 125.902 88.0713C125.837 88.1565 125.829 88.2807 125.915 88.3583Z" fill="white"/>
<path d="M125.847 88.4296C125.748 88.3147 125.746 88.1589 125.821 88.0397C125.664 88.059 125.543 88.1886 125.543 88.3455C125.543 88.5156 125.686 88.6537 125.861 88.6537C125.968 88.6537 126.062 88.6028 126.12 88.5241C126.025 88.5449 125.922 88.5172 125.847 88.4296Z" fill="#BDBCBC"/>
<path d="M127.681 88.2426C127.681 88.413 127.539 88.5511 127.363 88.5511C127.188 88.5511 127.046 88.413 127.046 88.2426C127.046 88.0721 127.188 87.934 127.363 87.934C127.539 87.934 127.681 88.0721 127.681 88.2426Z" fill="#D3D2D2"/>
<path d="M127.418 88.2549C127.479 88.3093 127.551 88.3232 127.613 88.2993C127.627 88.2692 127.636 88.236 127.636 88.2005C127.636 88.0748 127.533 87.973 127.404 87.9683C127.339 88.0536 127.331 88.1778 127.418 88.2549Z" fill="white"/>
<path d="M127.349 88.3266C127.25 88.2117 127.248 88.0559 127.323 87.9367C127.167 87.956 127.046 88.0856 127.046 88.2426C127.046 88.413 127.188 88.5511 127.363 88.5511C127.47 88.5511 127.564 88.4998 127.622 88.4211C127.528 88.442 127.424 88.4142 127.349 88.3266Z" fill="#BDBCBC"/>
<path d="M128.694 89.434C128.694 89.6045 128.552 89.7426 128.377 89.7426C128.201 89.7426 128.058 89.6045 128.058 89.434C128.058 89.2639 128.201 89.1254 128.377 89.1254C128.552 89.1254 128.694 89.2639 128.694 89.434Z" fill="#D3D2D2"/>
<path d="M128.431 89.4467C128.492 89.5007 128.564 89.5146 128.626 89.4911C128.641 89.461 128.649 89.4274 128.649 89.3927C128.649 89.2666 128.546 89.164 128.417 89.1601C128.353 89.2454 128.344 89.3696 128.431 89.4467Z" fill="white"/>
<path d="M128.362 89.5185C128.264 89.4035 128.261 89.2477 128.336 89.1281C128.18 89.1474 128.058 89.277 128.058 89.434C128.058 89.6045 128.201 89.7426 128.377 89.7426C128.483 89.7426 128.578 89.6913 128.636 89.6126C128.541 89.6338 128.438 89.6056 128.362 89.5185Z" fill="#BDBCBC"/>
<path d="M128.86 91.2406C128.86 91.4115 128.717 91.5492 128.542 91.5492C128.366 91.5492 128.223 91.4115 128.223 91.2406C128.223 91.0705 128.366 90.9324 128.542 90.9324C128.717 90.9324 128.86 91.0705 128.86 91.2406Z" fill="#D3D2D2"/>
<path d="M128.596 91.2533C128.657 91.3077 128.729 91.3216 128.791 91.2977C128.806 91.2676 128.814 91.2344 128.814 91.1993C128.814 91.0732 128.711 90.9706 128.582 90.9668C128.518 91.052 128.509 91.1762 128.596 91.2533Z" fill="white"/>
<path d="M128.527 91.3251C128.428 91.2101 128.426 91.0539 128.501 90.9351C128.345 90.954 128.223 91.0836 128.223 91.2406C128.223 91.4115 128.366 91.5492 128.542 91.5492C128.648 91.5492 128.743 91.4983 128.8 91.4196C128.706 91.4404 128.602 91.4122 128.527 91.3251Z" fill="#BDBCBC"/>
<path d="M128.377 92.7047C128.377 92.8748 128.234 93.0129 128.059 93.0129C127.883 93.0129 127.74 92.8748 127.74 92.7047C127.74 92.5343 127.883 92.3962 128.059 92.3962C128.234 92.3962 128.377 92.5343 128.377 92.7047Z" fill="#D3D2D2"/>
<path d="M128.113 92.7171C128.174 92.7711 128.246 92.7853 128.308 92.7614C128.322 92.731 128.331 92.6978 128.331 92.6631C128.331 92.5369 128.228 92.4347 128.099 92.4301C128.035 92.5157 128.026 92.6399 128.113 92.7171Z" fill="white"/>
<path d="M128.045 92.7888C127.946 92.6735 127.944 92.5181 128.018 92.3985C127.862 92.4178 127.74 92.5474 127.74 92.7047C127.74 92.8748 127.883 93.0129 128.059 93.0129C128.165 93.0129 128.26 92.962 128.318 92.8829C128.223 92.9041 128.119 92.8764 128.045 92.7888Z" fill="#BDBCBC"/>
<path d="M127.58 94.1056C127.58 94.2761 127.437 94.4146 127.262 94.4146C127.086 94.4146 126.944 94.2761 126.944 94.1056C126.944 93.9355 127.086 93.7974 127.262 93.7974C127.437 93.7974 127.58 93.9355 127.58 94.1056Z" fill="#D3D2D2"/>
<path d="M127.316 94.1187C127.377 94.1727 127.449 94.1866 127.511 94.1627C127.525 94.1326 127.534 94.0994 127.534 94.0643C127.534 93.9382 127.431 93.836 127.302 93.8317C127.237 93.9174 127.229 94.0412 127.316 94.1187Z" fill="white"/>
<path d="M127.247 94.1905C127.148 94.0748 127.146 93.9193 127.221 93.8001C127.065 93.8194 126.944 93.9486 126.944 94.1056C126.944 94.2761 127.086 94.4146 127.262 94.4146C127.369 94.4146 127.463 94.3633 127.52 94.2846C127.426 94.3054 127.322 94.2776 127.247 94.1905Z" fill="#BDBCBC"/>
<path d="M126.179 95.1069C126.179 95.2774 126.037 95.4154 125.861 95.4154C125.686 95.4154 125.543 95.2774 125.543 95.1069C125.543 94.9368 125.686 94.7983 125.861 94.7983C126.037 94.7983 126.179 94.9368 126.179 95.1069Z" fill="#D3D2D2"/>
<path d="M125.915 95.1196C125.976 95.1736 126.048 95.1879 126.111 95.164C126.125 95.1335 126.133 95.1007 126.133 95.0652C126.133 94.9395 126.03 94.8369 125.902 94.833C125.837 94.9183 125.829 95.0425 125.915 95.1196Z" fill="white"/>
<path d="M125.847 95.1913C125.748 95.076 125.746 94.9206 125.821 94.8014C125.664 94.8203 125.543 94.9499 125.543 95.1069C125.543 95.2774 125.686 95.4154 125.861 95.4154C125.968 95.4154 126.062 95.3641 126.12 95.2855C126.025 95.3067 125.922 95.2789 125.847 95.1913Z" fill="#BDBCBC"/>
<path d="M124.75 95.2098C124.75 95.3807 124.608 95.5184 124.432 95.5184C124.257 95.5184 124.114 95.3807 124.114 95.2098C124.114 95.0397 124.257 94.9017 124.432 94.9017C124.608 94.9017 124.75 95.0397 124.75 95.2098Z" fill="#D3D2D2"/>
<path d="M124.487 95.2226C124.548 95.277 124.62 95.2908 124.682 95.2669C124.696 95.2369 124.704 95.2037 124.704 95.1686C124.704 95.0425 124.602 94.9402 124.473 94.936C124.409 95.0212 124.4 95.1454 124.487 95.2226Z" fill="white"/>
<path d="M124.419 95.2943C124.319 95.179 124.317 95.0235 124.392 94.9044C124.236 94.9236 124.114 95.0529 124.114 95.2098C124.114 95.3807 124.257 95.5184 124.432 95.5184C124.539 95.5184 124.634 95.4675 124.691 95.3888C124.597 95.4096 124.493 95.3819 124.419 95.2943Z" fill="#BDBCBC"/>
<path d="M123.719 94.209C123.719 94.3791 123.577 94.5175 123.401 94.5175C123.226 94.5175 123.083 94.3791 123.083 94.209C123.083 94.0389 123.226 93.9004 123.401 93.9004C123.577 93.9004 123.719 94.0389 123.719 94.209Z" fill="#D3D2D2"/>
<path d="M123.455 94.2213C123.517 94.2757 123.589 94.2892 123.651 94.2657C123.665 94.2356 123.673 94.2024 123.673 94.1673C123.673 94.0412 123.571 93.939 123.442 93.9347C123.378 94.02 123.369 94.1442 123.455 94.2213Z" fill="white"/>
<path d="M123.387 94.2934C123.288 94.1781 123.286 94.0223 123.361 93.9031C123.204 93.9224 123.083 94.0516 123.083 94.209C123.083 94.3791 123.226 94.5175 123.401 94.5175C123.508 94.5175 123.602 94.4658 123.66 94.3875C123.566 94.4084 123.462 94.3806 123.387 94.2934Z" fill="#BDBCBC"/>
<path d="M123.447 92.5346C123.447 92.7051 123.305 92.8428 123.129 92.8428C122.953 92.8428 122.811 92.7051 122.811 92.5346C122.811 92.3641 122.953 92.2261 123.129 92.2261C123.305 92.2261 123.447 92.3641 123.447 92.5346Z" fill="#D3D2D2"/>
<path d="M123.183 92.5474C123.244 92.6014 123.317 92.6152 123.379 92.5913C123.393 92.5612 123.401 92.5281 123.401 92.493C123.401 92.3672 123.298 92.2646 123.17 92.2604C123.105 92.3456 123.097 92.4698 123.183 92.5474Z" fill="white"/>
<path d="M123.115 92.6191C123.016 92.5038 123.014 92.3479 123.089 92.2288C122.932 92.2481 122.811 92.3773 122.811 92.5346C122.811 92.7051 122.953 92.8428 123.129 92.8428C123.236 92.8428 123.33 92.7919 123.388 92.7136C123.294 92.734 123.19 92.7063 123.115 92.6191Z" fill="#BDBCBC"/>
<path d="M123.906 90.8642C123.906 91.0346 123.763 91.1727 123.588 91.1727C123.412 91.1727 123.27 91.0346 123.27 90.8642C123.27 90.6937 123.412 90.5556 123.588 90.5556C123.763 90.5556 123.906 90.6937 123.906 90.8642Z" fill="#D3D2D2"/>
<path d="M123.642 90.8769C123.703 90.9309 123.776 90.9448 123.838 90.9212C123.852 90.8908 123.86 90.8576 123.86 90.8225C123.86 90.6968 123.758 90.5942 123.629 90.5899C123.564 90.6752 123.556 90.7997 123.642 90.8769Z" fill="white"/>
<path d="M123.574 90.9486C123.475 90.8333 123.473 90.6775 123.548 90.5583C123.391 90.5776 123.27 90.7072 123.27 90.8642C123.27 91.0346 123.412 91.1727 123.588 91.1727C123.695 91.1727 123.789 91.1214 123.847 91.0427C123.752 91.0636 123.649 91.0362 123.574 90.9486Z" fill="#BDBCBC"/>
<path d="M124.78 89.3661C124.78 89.5366 124.637 89.6747 124.462 89.6747C124.287 89.6747 124.144 89.5366 124.144 89.3661C124.144 89.1956 124.287 89.0575 124.462 89.0575C124.637 89.0575 124.78 89.1956 124.78 89.3661Z" fill="#D3D2D2"/>
<path d="M124.516 89.3784C124.577 89.4328 124.65 89.4467 124.711 89.4228C124.726 89.3927 124.734 89.3595 124.734 89.3241C124.734 89.1983 124.631 89.0961 124.503 89.0919C124.438 89.1771 124.43 89.3013 124.516 89.3784Z" fill="white"/>
<path d="M124.447 89.4506C124.349 89.3352 124.347 89.1794 124.422 89.0602C124.265 89.0795 124.144 89.2091 124.144 89.3661C124.144 89.5366 124.287 89.6747 124.462 89.6747C124.569 89.6747 124.663 89.6234 124.721 89.5447C124.626 89.5655 124.523 89.5377 124.447 89.4506Z" fill="#BDBCBC"/>
<path d="M127.146 92.1709C126.702 93.2555 125.787 93.9204 125.101 93.6558C124.416 93.3916 124.222 92.2978 124.666 91.2136C125.11 90.1286 126.027 89.4641 126.711 89.7283C127.396 89.9925 127.591 91.0863 127.146 92.1709Z" fill="#E9E9E9"/>
<path d="M135.141 86.9339C135.141 86.9339 133.136 76.2203 141.73 71.7824C141.73 71.7824 149.918 66.5777 151.358 77.149L135.141 86.9339Z" fill="#151413"/>
<path d="M149.609 83.846C147.598 88.7498 143.28 91.6865 139.962 90.4067C136.644 89.1258 135.584 84.1121 137.594 79.2083C139.604 74.3045 143.923 71.3674 147.241 72.6483C150.558 73.9288 151.619 78.9425 149.609 83.846Z" fill="#323436"/>
<path d="M146.742 82.9639C145.691 85.5272 143.433 87.0627 141.699 86.3935C139.964 85.7239 139.41 83.1027 140.461 80.5393C141.512 77.9756 143.77 76.4401 145.504 77.1097C147.238 77.7796 147.792 80.4001 146.742 82.9639Z" fill="#151413"/>
<path d="M146.555 82.4046C145.626 84.6706 143.63 86.0275 142.096 85.4358C140.563 84.8441 140.073 82.5272 141.002 80.2612C141.931 77.9949 143.927 76.6376 145.46 77.2293C146.993 77.8213 147.483 80.1382 146.555 82.4046Z" fill="#D3D2D2"/>
<path d="M146.555 82.4046C145.626 84.6706 143.63 86.0275 142.096 85.4358C140.563 84.8441 140.073 82.5272 141.002 80.2612C141.931 77.9949 143.927 76.6376 145.46 77.2293C146.993 77.8213 147.483 80.1382 146.555 82.4046Z" fill="#D3D2D2"/>
<path d="M145.557 81.9144C144.935 83.4298 143.656 84.3589 142.699 83.9894C141.742 83.6199 141.47 82.0918 142.091 80.5768C142.712 79.0609 143.992 78.1318 144.949 78.5013C145.906 78.8708 146.177 80.3989 145.557 81.9144Z" fill="#7B7979"/>
<path d="M144.096 77.8984C144.096 78.0689 143.954 78.207 143.778 78.207C143.603 78.207 143.46 78.0689 143.46 77.8984C143.46 77.7283 143.603 77.5903 143.778 77.5903C143.954 77.5903 144.096 77.7283 144.096 77.8984Z" fill="#D3D2D2"/>
<path d="M143.832 77.9112C143.893 77.9656 143.966 77.9791 144.028 77.9551C144.042 77.9254 144.051 77.8919 144.051 77.8568C144.051 77.7311 143.948 77.6288 143.819 77.6246C143.754 77.7098 143.746 77.8336 143.832 77.9112Z" fill="white"/>
<path d="M143.764 77.9829C143.665 77.8676 143.664 77.7118 143.738 77.5926C143.582 77.6119 143.46 77.7415 143.46 77.8984C143.46 78.0689 143.603 78.207 143.778 78.207C143.885 78.207 143.979 78.1557 144.037 78.0774C143.943 78.0982 143.839 78.0705 143.764 77.9829Z" fill="#BDBCBC"/>
<path d="M145.599 77.7954C145.599 77.9659 145.456 78.104 145.281 78.104C145.105 78.104 144.963 77.9659 144.963 77.7954C144.963 77.6253 145.105 77.4869 145.281 77.4869C145.456 77.4869 145.599 77.6253 145.599 77.7954Z" fill="#D3D2D2"/>
<path d="M145.335 77.8082C145.396 77.8622 145.468 77.8765 145.53 77.8526C145.545 77.8221 145.553 77.7889 145.553 77.7538C145.553 77.6281 145.45 77.5259 145.321 77.5212C145.257 77.6069 145.248 77.7307 145.335 77.8082Z" fill="white"/>
<path d="M145.267 77.8799C145.167 77.7646 145.166 77.6088 145.24 77.4896C145.084 77.5089 144.963 77.6385 144.963 77.7954C144.963 77.9659 145.105 78.104 145.281 78.104C145.388 78.104 145.482 78.0527 145.54 77.974C145.445 77.9952 145.342 77.9675 145.267 77.8799Z" fill="#BDBCBC"/>
<path d="M146.612 78.9873C146.612 79.1574 146.469 79.2954 146.294 79.2954C146.118 79.2954 145.976 79.1574 145.976 78.9873C145.976 78.8172 146.118 78.6787 146.294 78.6787C146.469 78.6787 146.612 78.8172 146.612 78.9873Z" fill="#D3D2D2"/>
<path d="M146.348 79C146.409 79.0536 146.481 79.0679 146.544 79.044C146.558 79.0139 146.566 78.9807 146.566 78.9456C146.566 78.8199 146.464 78.7173 146.334 78.713C146.27 78.7983 146.261 78.9225 146.348 79Z" fill="white"/>
<path d="M146.28 79.0717C146.181 78.9564 146.179 78.8006 146.254 78.681C146.097 78.7007 145.976 78.8299 145.976 78.9873C145.976 79.1574 146.118 79.2954 146.294 79.2954C146.401 79.2954 146.495 79.2441 146.553 79.1659C146.458 79.1867 146.355 79.1589 146.28 79.0717Z" fill="#BDBCBC"/>
<path d="M146.777 80.7939C146.777 80.9644 146.635 81.1025 146.459 81.1025C146.283 81.1025 146.141 80.9644 146.141 80.7939C146.141 80.6234 146.283 80.4854 146.459 80.4854C146.635 80.4854 146.777 80.6234 146.777 80.7939Z" fill="#D3D2D2"/>
<path d="M146.513 80.8062C146.574 80.8606 146.646 80.8745 146.708 80.8506C146.723 80.8209 146.731 80.7873 146.731 80.7522C146.731 80.6265 146.629 80.5239 146.499 80.5197C146.435 80.6049 146.426 80.7291 146.513 80.8062Z" fill="white"/>
<path d="M146.445 80.878C146.346 80.7631 146.344 80.6072 146.419 80.4881C146.262 80.5073 146.141 80.6369 146.141 80.7939C146.141 80.9644 146.283 81.1025 146.459 81.1025C146.566 81.1025 146.66 81.0512 146.718 80.9725C146.623 80.9933 146.52 80.9656 146.445 80.878Z" fill="#BDBCBC"/>
<path d="M146.294 82.2576C146.294 82.4281 146.152 82.5662 145.976 82.5662C145.801 82.5662 145.658 82.4281 145.658 82.2576C145.658 82.0872 145.801 81.9491 145.976 81.9491C146.152 81.9491 146.294 82.0872 146.294 82.2576Z" fill="#D3D2D2"/>
<path d="M146.03 82.27C146.091 82.3244 146.164 82.3382 146.226 82.3147C146.24 82.2839 146.248 82.2511 146.248 82.216C146.248 82.0902 146.146 81.9876 146.017 81.9834C145.952 82.0686 145.943 82.1928 146.03 82.27Z" fill="white"/>
<path d="M145.962 82.3421C145.863 82.2268 145.861 82.071 145.936 81.9518C145.779 81.9711 145.658 82.1003 145.658 82.2576C145.658 82.4281 145.801 82.5662 145.976 82.5662C146.083 82.5662 146.177 82.5149 146.235 82.4362C146.14 82.457 146.037 82.4293 145.962 82.3421Z" fill="#BDBCBC"/>
<path d="M145.497 83.6589C145.497 83.8294 145.354 83.9674 145.179 83.9674C145.003 83.9674 144.861 83.8294 144.861 83.6589C144.861 83.4888 145.003 83.3503 145.179 83.3503C145.354 83.3503 145.497 83.4888 145.497 83.6589Z" fill="#D3D2D2"/>
<path d="M145.233 83.6716C145.294 83.7256 145.367 83.7395 145.429 83.716C145.443 83.6859 145.451 83.6523 145.451 83.6176C145.451 83.4915 145.348 83.3893 145.22 83.385C145.155 83.4703 145.146 83.5945 145.233 83.6716Z" fill="white"/>
<path d="M145.165 83.7433C145.065 83.628 145.064 83.4726 145.139 83.353C144.982 83.3723 144.861 83.5019 144.861 83.6589C144.861 83.8294 145.003 83.9674 145.179 83.9674C145.286 83.9674 145.38 83.9161 145.437 83.8375C145.344 83.8587 145.239 83.8309 145.165 83.7433Z" fill="#BDBCBC"/>
<path d="M144.096 84.6601C144.096 84.8306 143.954 84.9683 143.778 84.9683C143.603 84.9683 143.46 84.8306 143.46 84.6601C143.46 84.4897 143.603 84.3516 143.778 84.3516C143.954 84.3516 144.096 84.4897 144.096 84.6601Z" fill="#D3D2D2"/>
<path d="M143.832 84.6725C143.893 84.7269 143.966 84.7408 144.028 84.7169C144.042 84.6868 144.051 84.654 144.051 84.6185C144.051 84.4924 143.948 84.3902 143.819 84.3859C143.754 84.4712 143.746 84.5954 143.832 84.6725Z" fill="white"/>
<path d="M143.764 84.7442C143.665 84.6293 143.664 84.4735 143.738 84.3543C143.582 84.3736 143.46 84.5028 143.46 84.6601C143.46 84.8306 143.603 84.9683 143.778 84.9683C143.885 84.9683 143.979 84.9174 144.037 84.8387C143.943 84.8599 143.839 84.8318 143.764 84.7442Z" fill="#BDBCBC"/>
<path d="M142.668 84.7632C142.668 84.9336 142.525 85.0717 142.349 85.0717C142.174 85.0717 142.032 84.9336 142.032 84.7632C142.032 84.5931 142.174 84.4546 142.349 84.4546C142.525 84.4546 142.668 84.5931 142.668 84.7632Z" fill="#D3D2D2"/>
<path d="M142.404 84.7755C142.465 84.8299 142.537 84.8438 142.6 84.8202C142.614 84.7902 142.622 84.757 142.622 84.7215C142.622 84.5958 142.519 84.4935 142.39 84.4889C142.326 84.5745 142.317 84.6983 142.404 84.7755Z" fill="white"/>
<path d="M142.336 84.8476C142.237 84.7323 142.235 84.5769 142.31 84.4573C142.153 84.4766 142.032 84.6062 142.032 84.7632C142.032 84.9336 142.174 85.0717 142.349 85.0717C142.456 85.0717 142.551 85.0204 142.608 84.9417C142.514 84.9629 142.41 84.9352 142.336 84.8476Z" fill="#BDBCBC"/>
<path d="M141.636 83.7623C141.636 83.9324 141.494 84.0704 141.318 84.0704C141.143 84.0704 141.001 83.9324 141.001 83.7623C141.001 83.5918 141.143 83.4533 141.318 83.4533C141.494 83.4533 141.636 83.5918 141.636 83.7623Z" fill="#D3D2D2"/>
<path d="M141.373 83.7746C141.434 83.8286 141.506 83.8425 141.568 83.8189C141.582 83.7889 141.591 83.7553 141.591 83.7202C141.591 83.5945 141.488 83.4923 141.359 83.488C141.295 83.5733 141.286 83.6974 141.373 83.7746Z" fill="white"/>
<path d="M141.305 83.8463C141.206 83.731 141.203 83.5756 141.279 83.4564C141.122 83.4753 141.001 83.6049 141.001 83.7623C141.001 83.9324 141.143 84.0704 141.318 84.0704C141.425 84.0704 141.52 84.0191 141.578 83.9405C141.483 83.9617 141.379 83.9339 141.305 83.8463Z" fill="#BDBCBC"/>
<path d="M141.364 82.0879C141.364 82.258 141.222 82.3961 141.047 82.3961C140.871 82.3961 140.728 82.258 140.728 82.0879C140.728 81.9174 140.871 81.7794 141.047 81.7794C141.222 81.7794 141.364 81.9174 141.364 82.0879Z" fill="#D3D2D2"/>
<path d="M141.101 82.1003C141.161 82.1547 141.234 82.1685 141.296 82.1446C141.311 82.1145 141.318 82.0814 141.318 82.0463C141.318 81.9201 141.216 81.8179 141.087 81.8137C141.022 81.8985 141.014 82.0231 141.101 82.1003Z" fill="white"/>
<path d="M141.032 82.172C140.933 82.0571 140.931 81.9012 141.006 81.7817C140.85 81.801 140.728 81.9305 140.728 82.0879C140.728 82.258 140.871 82.3961 141.047 82.3961C141.154 82.3961 141.248 82.3448 141.305 82.2665C141.211 82.2873 141.107 82.2595 141.032 82.172Z" fill="#BDBCBC"/>
<path d="M141.823 80.4175C141.823 80.5879 141.681 80.726 141.505 80.726C141.33 80.726 141.187 80.5879 141.187 80.4175C141.187 80.247 141.33 80.1085 141.505 80.1085C141.681 80.1085 141.823 80.247 141.823 80.4175Z" fill="#D3D2D2"/>
<path d="M141.56 80.4298C141.621 80.4842 141.693 80.4981 141.755 80.4741C141.769 80.4441 141.778 80.4109 141.778 80.3758C141.778 80.2497 141.675 80.1475 141.546 80.1432C141.481 80.2285 141.473 80.3527 141.56 80.4298Z" fill="white"/>
<path d="M141.491 80.5015C141.392 80.3866 141.39 80.2308 141.465 80.1116C141.309 80.1305 141.187 80.2601 141.187 80.4175C141.187 80.5879 141.33 80.726 141.505 80.726C141.612 80.726 141.706 80.6747 141.764 80.596C141.67 80.6169 141.566 80.5891 141.491 80.5015Z" fill="#BDBCBC"/>
<path d="M142.697 78.919C142.697 79.0895 142.555 79.2276 142.379 79.2276C142.204 79.2276 142.061 79.0895 142.061 78.919C142.061 78.7485 142.204 78.6108 142.379 78.6108C142.555 78.6108 142.697 78.7485 142.697 78.919Z" fill="#D3D2D2"/>
<path d="M142.433 78.9317C142.494 78.9857 142.567 79 142.629 78.9757C142.643 78.9456 142.652 78.9125 142.652 78.8774C142.652 78.7516 142.549 78.6494 142.42 78.6448C142.355 78.7304 142.347 78.8546 142.433 78.9317Z" fill="white"/>
<path d="M142.365 79.0035C142.266 78.8882 142.264 78.7323 142.339 78.6131C142.183 78.6324 142.061 78.762 142.061 78.919C142.061 79.0895 142.204 79.2276 142.379 79.2276C142.486 79.2276 142.58 79.1763 142.638 79.0976C142.544 79.1188 142.44 79.0906 142.365 79.0035Z" fill="#BDBCBC"/>
<path d="M145.064 81.7238C144.619 82.8088 143.704 83.4734 143.019 83.2092C142.334 82.9446 142.139 81.8511 142.584 80.7669C143.028 79.6819 143.944 79.017 144.629 79.2812C145.313 79.5458 145.508 80.6392 145.064 81.7238Z" fill="#E9E9E9"/>
<path d="M45.2361 69.9175L61.148 75.8033C61.148 75.8033 66.9784 69.2379 80.087 64.7703L63.6059 59.6236C63.6059 59.6236 57.4854 60.1535 45.2361 69.9175Z" fill="#232425"/>
<path d="M61.148 75.8033L80.087 66.4038V64.7703C80.087 64.7703 66.3341 69.364 61.148 75.8033Z" fill="#0B0908"/>
<path d="M88.7405 48.9971L104.652 54.8833C104.652 54.8833 110.483 48.3179 123.591 43.8503L107.11 38.7031C107.11 38.7031 100.99 39.2331 88.7405 48.9971Z" fill="#232425"/>
<path d="M104.652 54.8833L123.591 45.4834V43.8503C123.591 43.8503 109.838 48.444 104.652 54.8833Z" fill="#0B0908"/>
<path d="M130.111 24.8067C130.111 24.8067 132.47 22.9365 134.928 23.8764L156.038 32.8532C156.038 32.8532 155.641 32.7414 153.945 33.6335L130.111 24.8067Z" fill="#093FA8"/>
<path d="M152.095 37.5179L150.668 38.3201L62.1194 85.435L62.094 85.4466C61.8849 85.5419 56.9648 87.8495 56.2652 94.3258L54.2139 109.165L70.8612 99.9015C70.8965 98.5786 71.3894 93.065 77.0353 89.8097L154.839 48.1019V39.9648C154.839 38.9438 154.628 38.1824 154.228 37.7628C153.955 37.4758 153.577 37.3304 153.102 37.3304C152.62 37.3304 152.193 37.4809 152.095 37.5179Z" fill="#84D7E3"/>
<path d="M155.166 36.8302C154.71 36.3511 154.075 36.0981 153.331 36.0981C152.568 36.0981 151.934 36.3619 151.908 36.3731L151.864 36.3947L150.398 37.2178L150.384 37.2263L61.2561 84.5741C60.8638 84.7523 55.5005 87.3196 54.733 94.4273L52.4921 110.633C52.4703 110.79 52.5422 110.945 52.6774 111.033C52.7493 111.08 52.8324 111.103 52.9154 111.103C52.989 111.103 53.0621 111.085 53.1281 111.049L71.3731 100.896C71.5122 100.818 71.5945 100.672 71.5873 100.516C71.5841 100.453 71.354 94.1793 77.4932 90.6397L155.818 48.7206C155.953 48.648 156.038 48.5088 156.038 48.358V39.7021C156.038 38.4046 155.745 37.4384 155.166 36.8302Z" fill="#232425"/>
<path d="M152.095 37.5179L150.668 38.3201L62.1194 85.435L62.094 85.4466C61.8849 85.5419 56.9648 87.8495 56.2652 94.3258L54.2139 109.165L70.8612 99.9015C70.8965 98.5786 71.3894 93.065 77.0353 89.8097L154.839 48.1019V39.9648C154.839 38.9438 154.628 38.1824 154.228 37.7628C153.955 37.4758 153.577 37.3304 153.102 37.3304C152.62 37.3304 152.193 37.4809 152.095 37.5179Z" fill="#84D7E3"/>
<path d="M65.2415 97.9707C64.0304 97.9703 62.8261 97.6498 62.0705 96.802C61.4588 96.1151 61.2732 95.1412 61.1945 94.266C61.0761 92.9493 61.1969 91.587 61.4123 90.286C61.5832 89.2562 61.8575 88.2526 62.1945 87.2671C62.5558 87.0311 62.805 86.9142 62.8432 86.8965L62.8623 86.888L69.8242 83.1802V95.2037C69.6584 95.709 69.5539 96.1749 69.4875 96.5722C68.9637 96.976 68.3754 97.3081 67.7161 97.5445C66.999 97.8025 66.1187 97.9707 65.2415 97.9707Z" fill="#B7E7EF"/>
<path d="M70.8612 99.9015C70.8675 99.672 70.8874 99.316 70.9454 98.8678C70.9454 98.8678 70.9458 98.8675 70.9462 98.8675C70.8878 99.3156 70.8675 99.6724 70.8612 99.9015ZM56.2652 94.3258C56.266 94.32 56.2668 94.3143 56.2672 94.3085C56.2668 94.3146 56.266 94.32 56.2652 94.3258ZM56.2676 94.305C56.2688 94.293 56.2704 94.2819 56.2716 94.2699C56.2704 94.2815 56.2688 94.2934 56.2676 94.305ZM56.272 94.268C56.2724 94.2622 56.2732 94.256 56.274 94.2502C56.2732 94.2564 56.2724 94.2618 56.272 94.268ZM56.274 94.2502C56.6233 91.1743 57.9262 89.0471 59.2112 87.6551C57.9262 89.0475 56.6233 91.175 56.274 94.2502Z" fill="#172324"/>
<path d="M54.2139 109.165L56.2652 94.3258C56.266 94.32 56.2668 94.3146 56.2672 94.3085C56.2676 94.3073 56.2676 94.3062 56.2676 94.305C56.2688 94.2934 56.2704 94.2815 56.2716 94.2699C56.2716 94.2691 56.2716 94.2687 56.272 94.268C56.2724 94.2618 56.2732 94.2564 56.274 94.2502C56.6233 91.175 57.9262 89.0475 59.2112 87.6551C59.7843 87.0342 60.3539 86.5597 60.834 86.2126C60.3626 87.6509 59.9894 89.1185 59.77 90.632C59.52 92.3576 59.3952 94.1924 59.6417 95.9249C59.8038 97.0655 60.146 98.167 60.9338 99.051C61.9481 100.19 63.5709 100.593 65.2013 100.593C66.3818 100.593 67.5666 100.381 68.5265 100.084C69.4192 99.8078 70.2224 99.3885 70.9454 98.8678C70.8874 99.316 70.8675 99.672 70.8612 99.9015L54.2139 109.165Z" fill="#44C1D1"/>
<path d="M72.2745 94.6818V94.678C73.1525 93.0167 74.5726 91.2738 76.8684 89.9072C74.5707 91.2753 73.1521 93.0195 72.2745 94.6818ZM76.8684 89.9072C76.8723 89.9053 76.8755 89.9034 76.8791 89.9011C76.8755 89.903 76.8719 89.9053 76.8684 89.9072ZM76.8839 89.8984C76.8871 89.8964 76.8898 89.8945 76.893 89.893C76.8898 89.8945 76.8867 89.8964 76.8839 89.8984ZM76.8994 89.8891C76.9018 89.8876 76.9049 89.8856 76.9077 89.8841C76.9049 89.886 76.9022 89.8876 76.8994 89.8891ZM76.9145 89.8802C76.9173 89.8787 76.92 89.8768 76.9228 89.8752C76.92 89.8768 76.9173 89.8783 76.9145 89.8802ZM76.93 89.871C76.9328 89.8694 76.9347 89.8683 76.9375 89.8663C76.9351 89.8679 76.9328 89.8694 76.93 89.871Z" fill="#172324"/>
<path d="M72.2745 94.678V80.0318L76.0738 78.0103C77.0313 79.6866 78.9145 81.3655 82.6208 81.3655C84.936 81.3655 87.9631 80.7098 91.9194 78.9884L144.963 50.2383C144.963 50.2383 151.616 47.8354 153.47 37.3655C153.773 37.4226 154.026 37.5526 154.224 37.7578C154.224 37.7578 154.224 37.7578 154.224 37.7582C154.226 37.7593 154.227 37.7613 154.228 37.7628C154.628 38.1825 154.839 38.9438 154.839 39.9648V48.1019L77.0353 89.8097C77.0301 89.8124 77.025 89.8154 77.0202 89.8185C77.0182 89.8193 77.0166 89.8205 77.015 89.8212C77.0115 89.8232 77.0079 89.8255 77.0047 89.8274C77.0027 89.8286 77.0007 89.8297 76.9987 89.8309C76.9956 89.8328 76.9924 89.8344 76.9896 89.8363C76.9872 89.8374 76.9848 89.839 76.9828 89.8401C76.9797 89.8417 76.9769 89.8436 76.9737 89.8452C76.9717 89.8463 76.9697 89.8478 76.9677 89.849C76.9646 89.8509 76.961 89.8529 76.9578 89.8544C76.9558 89.8559 76.9542 89.8567 76.9522 89.8579C76.9471 89.861 76.9423 89.8637 76.9375 89.8664C76.9347 89.8683 76.9328 89.8694 76.93 89.871C76.9276 89.8725 76.9252 89.8737 76.9228 89.8752C76.92 89.8768 76.9173 89.8787 76.9145 89.8803C76.9121 89.8814 76.9097 89.8829 76.9077 89.8841C76.9049 89.8856 76.9018 89.8876 76.8994 89.8891C76.8974 89.8903 76.895 89.8914 76.893 89.893C76.8898 89.8945 76.8871 89.8964 76.8839 89.8984C76.8823 89.8991 76.8807 89.8999 76.8791 89.9011C76.8755 89.9034 76.8723 89.9053 76.8684 89.9072C74.5726 91.2738 73.1525 93.0168 72.2745 94.678Z" fill="#44C1D1"/>
<path d="M70.7069 80.0248V100.505C70.7069 100.505 71.6589 95.697 73.354 93.7966V78.7439L70.7069 80.0248Z" fill="#232425"/>
<path d="M85.2393 75.9082C83.409 75.9082 82.4459 75.3976 81.9415 74.8884L103.423 63.4578L148.451 39.4992C147.869 45.7295 143.075 47.9376 143.075 47.9376L97.3383 72.3482C91.3232 75.077 87.5747 75.9086 85.2393 75.9082Z" fill="#B7E7EF"/>
<path d="M88.7957 84.374L87.7019 85.0505V71.5405L88.7957 70.8821V84.374Z" fill="#232425"/>
<path d="M106.166 75.1268L105.072 75.8033V62.293L106.166 61.635V75.1268Z" fill="#232425"/>
<path d="M123.918 65.0554L122.825 65.7315V52.2216L123.918 51.5632V65.0554Z" fill="#232425"/>
<path d="M141.079 55.9578L139.985 56.6344V43.1244L141.079 42.4664V55.9578Z" fill="#232425"/>
</svg>
