<svg width="32" height="32" viewBox="0 0 32 32" fill="none" xmlns="http://www.w3.org/2000/svg">
<path d="M10.6667 24C10.6667 23.8232 10.5964 23.6536 10.4714 23.5286C10.3464 23.4036 10.1768 23.3333 9.99999 23.3333H7.33332C7.24578 23.3333 7.15908 23.3506 7.0782 23.3841C6.99732 23.4176 6.92382 23.4667 6.86192 23.5286C6.80001 23.5905 6.75091 23.664 6.7174 23.7449C6.6839 23.8258 6.66666 23.9125 6.66666 24V28C6.66666 28.0876 6.6839 28.1742 6.7174 28.2551C6.75091 28.336 6.80001 28.4095 6.86192 28.4714C6.92382 28.5333 6.99732 28.5824 7.0782 28.6159C7.15908 28.6494 7.24578 28.6667 7.33332 28.6667H9.99999C10.1768 28.6667 10.3464 28.5964 10.4714 28.4714C10.5964 28.3464 10.6667 28.1768 10.6667 28V24ZM25.3333 24C25.3333 23.9125 25.3161 23.8258 25.2826 23.7449C25.2491 23.664 25.2 23.5905 25.1381 23.5286C25.0762 23.4667 25.0027 23.4176 24.9218 23.3841C24.8409 23.3506 24.7542 23.3333 24.6667 23.3333H22C21.8232 23.3333 21.6536 23.4036 21.5286 23.5286C21.4036 23.6536 21.3333 23.8232 21.3333 24V28C21.3333 28.1768 21.4036 28.3464 21.5286 28.4714C21.6536 28.5964 21.8232 28.6667 22 28.6667H24.6667C24.7542 28.6667 24.8409 28.6494 24.9218 28.6159C25.0027 28.5824 25.0762 28.5333 25.1381 28.4714C25.2 28.4095 25.2491 28.336 25.2826 28.2551C25.3161 28.1742 25.3333 28.0876 25.3333 28V24Z" fill="#455A64"/>
<path d="M25 2.66667H7.00001C6.78114 2.66667 6.56441 2.70978 6.3622 2.79354C6.15999 2.8773 5.97626 3.00006 5.8215 3.15483C5.66673 3.30959 5.54397 3.49332 5.46021 3.69553C5.37645 3.89774 5.33334 4.11447 5.33334 4.33334V24.6667C5.33334 24.6667 5.33334 26 6.66668 26H25.3333C26.6667 26 26.6667 24.6667 26.6667 24.6667V4.33334C26.6667 4.11447 26.6236 3.89774 26.5398 3.69553C26.4561 3.49332 26.3333 3.30959 26.1785 3.15483C26.0238 3.00006 25.84 2.8773 25.6378 2.79354C25.4356 2.70978 25.2189 2.66667 25 2.66667Z" fill="#0085FF"/>
<path d="M6.66667 14.9993C6.66667 15.2645 6.56131 15.5189 6.37377 15.7064C6.18624 15.894 5.93188 15.9993 5.66667 15.9993H5C4.73478 15.9993 4.48043 15.894 4.29289 15.7064C4.10536 15.5189 4 15.2645 4 14.9993V13C4 12.7348 4.10536 12.4804 4.29289 12.2929C4.48043 12.1054 4.73478 12 5 12H5.66667C5.93188 12 6.18624 12.1054 6.37377 12.2929C6.56131 12.4804 6.66667 12.7348 6.66667 13V14.9993ZM28 14.9993C28 15.2645 27.8946 15.5189 27.7071 15.7064C27.5196 15.894 27.2652 15.9993 27 15.9993H26.3333C26.0681 15.9993 25.8138 15.894 25.6262 15.7064C25.4387 15.5189 25.3333 15.2645 25.3333 14.9993V13C25.3333 12.7348 25.4387 12.4804 25.6262 12.2929C25.8138 12.1054 26.0681 12 26.3333 12H27C27.2652 12 27.5196 12.1054 27.7071 12.2929C27.8946 12.4804 28 12.7348 28 13V14.9993Z" fill="#0085FF"/>
<path d="M7.33334 21.6667C7.33334 21.8855 7.37645 22.1023 7.46021 22.3045C7.54397 22.5067 7.66673 22.6904 7.8215 22.8452C7.97626 22.9999 8.15999 23.1227 8.3622 23.2065C8.56441 23.2902 8.78114 23.3333 9.00001 23.3333C9.21888 23.3333 9.43561 23.2902 9.63782 23.2065C9.84003 23.1227 10.0238 22.9999 10.1785 22.8452C10.3333 22.6904 10.4561 22.5067 10.5398 22.3045C10.6236 22.1023 10.6667 21.8855 10.6667 21.6667C10.6667 21.2246 10.4911 20.8007 10.1785 20.4882C9.86596 20.1756 9.44204 20 9.00001 20C8.55798 20 8.13406 20.1756 7.8215 20.4882C7.50894 20.8007 7.33334 21.2246 7.33334 21.6667Z" fill="#FFF8E1"/>
<path d="M21.3333 21.6667C21.3333 22.1087 21.5089 22.5326 21.8215 22.8452C22.1341 23.1577 22.558 23.3333 23 23.3333C23.442 23.3333 23.866 23.1577 24.1785 22.8452C24.4911 22.5326 24.6667 22.1087 24.6667 21.6667C24.6667 21.2246 24.4911 20.8007 24.1785 20.4882C23.866 20.1756 23.442 20 23 20C22.558 20 22.1341 20.1756 21.8215 20.4882C21.5089 20.8007 21.3333 21.2246 21.3333 21.6667Z" fill="#FFF8E1"/>
<path d="M24.3333 4H7.66666C7.40144 4 7.14709 4.10536 6.95955 4.29289C6.77201 4.48043 6.66666 4.73478 6.66666 5V15.6667C6.66666 15.8855 6.70977 16.1023 6.79352 16.3045C6.87728 16.5067 7.00005 16.6904 7.15481 16.8452C7.30958 16.9999 7.49331 17.1227 7.69552 17.2065C7.89773 17.2902 8.11445 17.3333 8.33332 17.3333H23.6667C23.8855 17.3333 24.1023 17.2902 24.3045 17.2065C24.5067 17.1227 24.6904 16.9999 24.8452 16.8452C24.9999 16.6904 25.1227 16.5067 25.2065 16.3045C25.2902 16.1023 25.3333 15.8855 25.3333 15.6667V5C25.3333 4.73478 25.228 4.48043 25.0404 4.29289C24.8529 4.10536 24.5985 4 24.3333 4Z" fill="#9FA8DA"/>
<path d="M25.3333 8H6.66666V5C6.66666 4.73478 6.77201 4.48043 6.95955 4.29289C7.14709 4.10536 7.40144 4 7.66666 4H24.3333C24.5985 4 24.8529 4.10536 25.0404 4.29289C25.228 4.48043 25.3333 4.73478 25.3333 5V8Z" fill="#263238"/>
<path d="M8 5.33333H15.3333V6.66666H8V5.33333ZM16.6667 5.33333H19.3333V6.66666H16.6667V5.33333Z" fill="#64DD17"/>
<path d="M14 17.3333H8.66666V12.3333C8.66666 12.0681 8.77201 11.8138 8.95955 11.6262C9.14709 11.4387 9.40144 11.3333 9.66666 11.3333H13C13.2652 11.3333 13.5196 11.4387 13.7071 11.6262C13.8946 11.8138 14 12.0681 14 12.3333V17.3333ZM23.3333 17.3333H18V12.3333C18 12.0681 18.1053 11.8138 18.2929 11.6262C18.4804 11.4387 18.7348 11.3333 19 11.3333H22.3333C22.5985 11.3333 22.8529 11.4387 23.0404 11.6262C23.228 11.8138 23.3333 12.0681 23.3333 12.3333V17.3333Z" fill="#7986CB"/>
<path d="M18.9533 17.3333C18.776 17.1353 18.6667 16.9087 18.6667 16.6667C18.6667 15.944 19.5827 15.3333 20.6667 15.3333C21.7507 15.3333 22.6667 15.944 22.6667 16.6667C22.6667 16.9087 22.5573 17.1353 22.38 17.3333H23.8813C23.9513 17.1193 24 16.8987 24 16.6667C24 15.196 22.5047 14 20.6667 14C18.8287 14 17.3333 15.196 17.3333 16.6667C17.3333 16.8987 17.382 17.1193 17.452 17.3333H18.9533Z" fill="#3949AB"/>
</svg>
